# xmcd CD database file
#
# Track frame offsets:
#	150
#	25912
#	52565
#	75452
#	101115
#	125675
#	151437
#	178057
#
# Disc length: 2676 seconds
#
# Revision: 1
# Processed by: cddbd v1.5.2PL0 Copyright (c) Steve Scherf et al.
# Submitted via: CDex 1.60beta1-cs1
#
DISCID=5b0a7208
DTITLE=浜崎あゆみ - L
DYEAR=2010
DGENRE=JPop
TTITLE0=Last angel (Original mix)
TTITLE1=Virgin Road (Original mix)
TTITLE2=Sweet Season (Original mix)
TTITLE3=crossroad (Orchestra version)
TTITLE4=SEVEN DAYS WAR (Orchestra versio)
TTITLE5=Last angel (Original mix -Instrumental-)
TTITLE6=Virgin Road (Original mix -Instrumental-)
TTITLE7=Sweet Season (Original mix -Instrumental-)
EXTD=YEAR: 2010
EXTT0=
EXTT1=
EXTT2=
EXTT3=
EXTT4=
EXTT5=
EXTT6=
EXTT7=
PLAYORDER=
